<svg version="1.1" id="Layer_1" xmlns="http://www.w3.org/2000/svg" xmlns:xlink="http://www.w3.org/1999/xlink" x="0px" y="0px"
	 width="100%" viewBox="0 0 1561 1637" enable-background="new 0 0 1561 1637" xml:space="preserve">
<path fill="#FFFFFF" opacity="1.000000" stroke="none" 
	d="
M1.000000,843.000000 
	C1.000000,562.419983 1.000000,281.839905 1.000000,1.000000 
	C165.029282,1.000000 329.058685,1.000000 493.541199,1.368970 
	C487.385223,14.165475 480.776093,26.593010 474.010468,39.349522 
	C472.081360,43.101482 470.079407,46.426773 468.573181,49.963192 
	C458.329437,74.014191 447.961365,98.016731 438.122284,122.233513 
	C433.787994,132.901398 430.597473,144.033981 426.543457,155.138931 
	C422.837494,166.407715 419.282654,177.439133 416.162781,188.592239 
	C412.256226,202.557739 408.354187,216.541733 405.093842,230.666306 
	C401.132324,247.828369 397.581970,265.096741 394.344757,282.410919 
	C391.837921,295.818695 389.892303,309.341400 388.062897,322.862488 
	C386.725922,332.743713 385.867157,342.695282 385.002014,352.633484 
	C383.579102,368.979309 381.266083,385.336823 381.221283,401.694580 
	C381.132263,434.202087 382.229645,466.715729 383.066711,499.220917 
	C383.286102,507.741425 384.039429,516.278809 385.095001,524.740234 
	C386.826630,538.620117 388.775757,552.482300 391.061737,566.281006 
	C393.336761,580.013672 395.812012,593.730835 398.797638,607.323425 
	C402.186798,622.753174 405.762482,638.174377 410.128784,653.348511 
	C415.224243,671.056458 421.262329,688.493286 426.944946,706.432983 
	C438.281830,739.045715 451.865540,770.297791 467.023376,800.873474 
	C469.434235,805.736511 472.301849,810.373169 474.981384,815.482422 
	C484.505768,832.903320 493.765350,850.097351 503.605835,866.952271 
	C508.873352,875.974487 515.141541,884.412415 520.980286,893.472046 
	C527.345032,903.303711 533.458801,912.941223 540.092590,922.206299 
	C547.125061,932.028320 554.651672,941.496521 562.091797,951.437317 
	C566.156982,956.913635 569.926941,962.209595 574.067749,967.197632 
	C580.224854,974.614685 586.644226,981.813965 592.976379,989.456604 
	C596.846497,994.216431 600.627808,998.683716 604.550659,1003.023132 
	C613.628296,1013.064209 622.774475,1023.043396 632.023315,1033.362915 
	C635.382263,1037.263428 638.610779,1040.848755 642.041260,1044.658447 
	C642.929993,1043.064453 643.527771,1042.280151 643.837646,1041.395264 
	C656.948181,1003.947876 670.032959,966.491516 683.454224,928.865479 
	C684.539307,926.411072 685.162048,924.075134 686.063110,921.851929 
	C695.304443,899.051575 704.608154,876.276550 713.853210,853.477722 
	C716.324402,847.383667 718.654907,841.232605 721.379028,834.948120 
	C731.485596,813.416504 740.931091,791.884216 751.142883,770.721741 
	C759.765503,752.852539 769.276855,735.412170 778.665771,717.517944 
	C788.944153,700.274597 798.752808,683.174133 809.003906,666.343140 
	C826.105774,638.264160 845.276184,611.702637 868.969360,588.739014 
	C873.401672,584.443054 873.579285,580.116577 872.456177,574.938293 
	C872.249023,573.983093 872.090698,573.010010 872.005798,572.036804 
	C870.994202,560.441528 870.478149,548.778809 868.887756,537.264160 
	C866.645508,521.030396 864.682434,504.634369 860.667297,488.797729 
	C854.456177,464.299042 847.418945,439.937592 839.220215,416.036591 
	C831.862671,394.587952 823.131470,373.537323 813.767090,352.872650 
	C805.763306,335.210358 796.089233,318.298004 786.961365,301.156464 
	C784.331177,296.217072 781.034424,291.632599 778.018433,286.522888 
	C777.787659,285.734131 777.629639,285.275909 777.369263,284.886139 
	C763.918518,264.756470 750.595703,244.539124 736.922424,224.561676 
	C732.457520,218.038300 727.077637,212.141220 722.060852,205.605133 
	C716.361755,198.304718 710.875671,191.221054 705.034058,184.443756 
	C697.884277,176.148682 690.436646,168.110321 683.061401,159.612335 
	C677.049255,152.724152 671.338867,145.938492 665.082031,139.701004 
	C654.924133,129.574524 644.408325,119.807159 633.918823,109.577820 
	C623.643005,100.129578 613.541626,90.935547 603.309204,81.889656 
	C600.415894,79.331810 597.139648,77.207069 593.913757,74.572189 
	C583.539795,66.135811 573.291077,58.010937 562.913330,49.570160 
	C557.018921,44.836288 551.362610,40.266182 545.461182,36.038185 
	C537.777893,30.533613 529.899963,25.300579 521.966797,19.627213 
	C512.885193,13.202480 503.942596,7.101237 495.000000,0.999997 
	C850.598938,1.000000 1206.197876,1.000000 1562.000000,1.000000 
	C1562.000000,366.362701 1562.000000,731.725403 1561.549072,1097.545410 
	C1550.687378,1097.003662 1540.291870,1095.779785 1529.861572,1095.062256 
	C1516.725830,1094.158447 1503.568115,1093.421875 1490.407715,1093.074951 
	C1478.947144,1092.772827 1467.469849,1093.111694 1455.585449,1093.247437 
	C1454.419556,1093.551514 1453.678101,1093.927734 1452.915283,1093.977417 
	C1436.277954,1095.062500 1419.638184,1096.110962 1402.568848,1097.092041 
	C1401.311401,1097.014038 1400.470581,1096.911499 1399.658813,1097.022095 
	C1390.052002,1098.331055 1380.416870,1099.476196 1370.855835,1101.064697 
	C1362.845703,1102.395630 1354.923218,1104.254639 1346.537598,1105.934082 
	C1345.286499,1105.994263 1344.415894,1105.830566 1343.639160,1106.030884 
	C1326.752808,1110.385254 1309.876709,1114.779907 1292.613525,1119.096924 
	C1287.381836,1120.680664 1282.491333,1122.216919 1277.696899,1124.010254 
	C1263.444092,1129.341309 1249.229248,1134.773438 1234.627197,1140.094727 
	C1231.898193,1141.021851 1229.477905,1141.893066 1227.195679,1143.039185 
	C1212.100952,1150.619629 1197.036011,1158.259033 1181.594727,1165.937012 
	C1162.471313,1177.624878 1143.714600,1189.254883 1124.636719,1201.022949 
	C1117.180298,1206.444092 1109.879639,1211.520020 1102.948853,1217.058960 
	C1092.812500,1225.159790 1082.941406,1233.592529 1072.642334,1242.016357 
	C1066.200073,1247.614624 1059.878052,1252.879395 1053.988647,1258.590210 
	C1043.711060,1268.556152 1033.679321,1278.776245 1023.606445,1288.951294 
	C1022.514282,1290.054565 1021.830505,1291.562134 1020.645142,1293.013184 
	C1007.106934,1308.378296 993.635254,1323.408813 980.751526,1338.927246 
	C973.622192,1347.514526 967.476807,1356.918823 960.568237,1366.087891 
	C958.152344,1369.264038 956.003845,1372.272583 953.968933,1375.356201 
	C944.207947,1390.147095 934.148010,1404.754761 924.836487,1419.824219 
	C916.740906,1432.925903 909.503723,1446.558105 901.563721,1460.109619 
	C898.167297,1466.117065 894.906921,1471.880981 892.057800,1477.841431 
	C884.345947,1493.974854 876.129333,1509.913452 869.360413,1526.440308 
	C859.014771,1551.699829 849.702820,1577.383301 839.995667,1602.903442 
	C839.059265,1605.364990 838.428162,1607.942749 837.164612,1612.069214 
	C860.275879,1611.296143 882.137451,1610.564819 904.456299,1609.909912 
	C909.826904,1609.657837 914.739868,1609.326172 919.653442,1609.001709 
	C929.812073,1608.331055 939.981628,1607.790649 950.124451,1606.933350 
	C954.112976,1606.596191 958.041931,1605.554688 962.442383,1604.910034 
	C964.872070,1604.980957 966.890991,1605.210327 968.837158,1604.931763 
	C979.860596,1603.354614 990.882324,1601.752563 1001.872742,1599.962646 
	C1008.625061,1598.862915 1015.320312,1597.412598 1022.466187,1596.067017 
	C1025.138428,1595.676880 1027.417236,1595.479126 1029.627686,1594.979492 
	C1044.426514,1591.633789 1059.210693,1588.223755 1074.389771,1584.905518 
	C1076.910767,1584.317261 1079.041748,1583.658691 1081.172485,1582.999390 
	C1096.128052,1578.372437 1111.083496,1573.745483 1126.435059,1569.065430 
	C1135.439453,1566.005249 1144.147705,1563.252808 1152.630615,1559.925659 
	C1162.868042,1555.910400 1172.914185,1551.407349 1183.421875,1547.059692 
	C1200.866699,1538.613892 1217.932617,1530.223877 1235.354614,1521.811279 
	C1249.455566,1513.709351 1263.308716,1505.806152 1276.896240,1497.470215 
	C1282.910645,1493.780396 1288.387939,1489.214722 1294.466553,1485.022095 
	C1312.215576,1471.609619 1329.606934,1458.221802 1347.334351,1444.827148 
	C1354.397827,1438.765259 1361.409790,1432.993896 1367.791870,1426.594238 
	C1380.086792,1414.265259 1392.025391,1401.581177 1404.422363,1388.920166 
	C1414.973389,1376.878906 1425.523438,1365.210693 1435.354736,1352.965454 
	C1443.047241,1343.384277 1449.848633,1333.087769 1457.369385,1322.969849 
	C1462.577393,1315.603760 1467.792603,1308.575684 1472.281860,1301.111084 
	C1483.926514,1281.749023 1495.684814,1262.432617 1506.555176,1242.635498 
	C1514.080200,1228.931274 1520.796509,1214.704712 1526.815186,1200.270020 
	C1535.478149,1179.493164 1543.506104,1158.433594 1551.162109,1137.261963 
	C1555.445312,1125.417236 1558.430054,1113.102783 1562.000000,1101.000000 
	C1562.000000,1279.947266 1562.000000,1458.894409 1562.000000,1638.000000 
	C1275.637329,1638.000000 989.274597,1638.000000 702.454224,1637.610596 
	C701.897949,1636.579956 701.918152,1635.891113 701.683289,1635.304321 
	C694.143005,1616.465210 685.418945,1598.004028 679.293701,1578.717163 
	C670.520447,1551.092285 662.889648,1523.044800 656.173767,1494.843628 
	C649.841675,1468.254028 644.859680,1441.313110 640.171875,1414.372192 
	C636.989075,1396.080933 635.099670,1377.549316 633.077942,1359.076294 
	C631.383850,1343.596924 630.180542,1328.058228 629.050293,1312.524780 
	C628.141418,1300.033936 627.525452,1287.517090 627.039124,1275.001709 
	C626.531006,1261.924561 626.109924,1248.836182 626.072021,1235.751465 
	C626.042786,1225.667114 626.675049,1215.581177 626.996155,1205.495239 
	C627.669983,1184.325195 628.310059,1163.154053 629.011414,1141.984863 
	C629.273865,1134.062744 629.574646,1126.139526 630.036377,1118.227173 
	C630.332092,1113.158569 630.546021,1108.023560 631.581848,1103.082886 
	C632.209717,1100.088257 631.857971,1098.134521 629.692627,1096.119629 
	C617.107788,1084.409424 604.583008,1072.634521 591.909180,1060.567383 
	C577.536682,1048.800049 563.292908,1037.346558 548.903992,1025.578857 
	C548.290710,1025.119751 547.743164,1025.085449 547.365784,1024.814453 
	C531.533752,1013.443726 515.717041,1002.051758 499.657654,990.367432 
	C489.623138,983.894287 479.927216,977.553284 470.005768,971.587463 
	C461.484131,966.463379 452.704773,961.767944 443.901672,956.559509 
	C427.175354,947.546265 410.586731,938.856384 393.666718,930.013428 
	C377.239807,922.537415 361.144287,915.214600 344.880737,907.559814 
	C336.817535,904.153076 328.970367,900.947266 321.015045,898.037109 
	C311.404175,894.521301 301.701691,891.256042 291.862946,887.545349 
	C279.633698,883.426208 267.603546,879.567749 255.517029,875.894958 
	C249.732849,874.137268 243.841843,872.731201 237.641861,870.992126 
	C228.083054,868.520874 218.907028,866.114380 209.672195,863.959900 
	C202.150940,862.205200 194.559341,860.751953 186.634430,858.986023 
	C178.225082,857.204529 170.212418,855.411377 162.127380,854.046875 
	C151.447723,852.244385 140.711395,850.777710 129.563812,849.092163 
	C121.651680,848.308411 114.180016,847.542419 106.697495,846.903503 
	C95.468246,845.944580 84.231392,845.074707 72.552162,844.092285 
	C48.404373,843.678345 24.702187,843.339172 1.000000,843.000000 
M997.728088,868.766785 
	C1006.524353,859.195984 1015.320618,849.625244 1024.717529,839.775818 
	C1040.557983,823.932068 1056.389771,808.079468 1072.253662,792.259216 
	C1073.745605,790.771423 1075.441284,789.487976 1077.650757,787.820496 
	C1085.680054,780.464478 1093.712891,773.112488 1101.737427,765.751343 
	C1108.526855,759.522949 1115.306763,753.284119 1122.708130,746.768066 
	C1123.421387,746.372009 1124.217529,746.076233 1124.835205,745.564697 
	C1132.938477,738.853149 1140.776123,731.786438 1149.218262,725.535278 
	C1152.639404,723.002136 1153.267334,720.408325 1153.005127,716.798828 
	C1152.610962,711.373108 1152.503174,705.921204 1151.949951,700.513550 
	C1151.031860,691.539795 1150.698608,682.391052 1148.614624,673.675720 
	C1144.251953,655.430664 1139.355225,637.281372 1133.788574,619.369019 
	C1130.854858,609.928894 1126.050049,601.070312 1121.981934,591.225159 
	C1110.363281,566.489807 1095.842529,543.633362 1077.754272,522.375244 
	C1072.122314,516.633484 1066.490479,510.891693 1060.897705,505.189941 
	C1057.969482,506.936432 1055.259277,508.394653 1052.713745,510.098999 
	C1042.431885,516.983276 1032.201050,523.943542 1021.246948,531.000000 
	C1012.483215,537.294128 1003.719482,543.588257 994.331909,550.188904 
	C985.523376,557.108276 976.714905,564.027649 967.286804,571.236023 
	C958.853088,578.216980 950.419373,585.197998 941.328979,592.256409 
	C938.974854,594.582397 936.643372,596.931885 934.262878,599.230530 
	C918.501099,614.450500 902.728821,629.659546 886.349243,645.166870 
	C877.218018,655.407349 868.086792,665.647827 858.329590,676.182983 
	C855.235901,679.941650 852.065735,683.640381 849.064636,687.471558 
	C842.979980,695.239075 836.986816,703.078247 830.325745,711.182800 
	C829.357544,712.481873 828.349792,713.753540 827.427368,715.084290 
	C818.928467,727.346313 810.444336,739.618408 801.327820,752.215881 
	C796.574707,759.953613 791.675781,767.606506 787.108215,775.452332 
	C782.226868,783.837158 777.658020,792.403870 772.307007,801.192139 
	C763.866516,817.995300 755.379089,834.775085 747.025879,851.621460 
	C745.384216,854.932190 744.260803,858.499878 742.260803,862.279419 
	C736.161499,877.525208 729.523254,892.582092 724.096802,908.063660 
	C717.020630,928.251648 710.686523,948.709961 704.475769,969.186218 
	C701.720398,978.270386 700.049011,987.683350 697.201965,997.343262 
	C696.445801,1001.316833 695.888245,1005.340393 694.902039,1009.256042 
	C687.232300,1039.708252 683.199341,1070.789673 679.104675,1101.838867 
	C677.157043,1116.607300 676.030334,1131.504395 675.074707,1146.378052 
	C674.048035,1162.358032 673.050964,1178.381958 673.132324,1194.381226 
	C673.255249,1218.547119 674.219360,1242.711792 675.034241,1266.869873 
	C675.456299,1279.383301 676.295532,1291.883423 677.010620,1304.385864 
	C677.254272,1308.645264 677.569519,1312.908081 678.069458,1317.143677 
	C679.311584,1327.668457 680.620544,1338.185913 682.014221,1348.691650 
	C683.148132,1357.239380 684.363770,1365.777954 685.687866,1374.298096 
	C687.383240,1385.207764 689.035461,1396.129639 691.054077,1406.981567 
	C693.112427,1418.046753 695.592285,1429.033569 697.973938,1440.889038 
	C697.979614,1441.388428 697.890625,1441.910767 698.004639,1442.384033 
	C702.011719,1459.026489 705.847412,1475.713745 710.138367,1492.283081 
	C712.429932,1501.131836 715.511841,1509.776001 718.237061,1518.512451 
	C718.825684,1518.439819 719.414307,1518.367188 720.002930,1518.294556 
	C720.002930,1495.560181 719.805786,1472.823242 720.094666,1450.092651 
	C720.219849,1440.244751 720.963440,1430.364746 722.110840,1420.579468 
	C723.740601,1406.679932 725.687927,1392.799927 728.075012,1379.011230 
	C730.921143,1362.571533 734.145142,1346.187622 737.645874,1329.874023 
	C740.083679,1318.513916 743.262939,1307.312866 746.793396,1295.666748 
	C748.768555,1288.669189 750.424561,1281.562256 752.778320,1274.694458 
	C760.059570,1253.449097 767.606628,1232.294800 775.717102,1210.754639 
	C781.929504,1196.237549 788.082703,1181.694580 794.379639,1167.214233 
	C797.465576,1160.118042 800.818604,1153.137817 804.693665,1145.779785 
	C814.166809,1127.867554 823.639954,1109.955444 833.740173,1091.722168 
	C837.134033,1085.676636 840.424255,1079.569946 843.945435,1073.599487 
	C849.587097,1064.033569 855.381714,1054.557861 861.744080,1044.767090 
	C870.618591,1031.472778 879.493103,1018.178406 888.904053,1004.375000 
	C892.321655,999.427124 895.591125,994.368652 899.185486,989.552673 
	C908.653137,976.867310 918.262146,964.287476 927.814514,951.665344 
	C933.105042,944.674561 938.394958,937.683228 944.156677,930.259094 
	C948.321289,925.452698 952.569336,920.715515 956.628418,915.821533 
	C961.190796,910.320801 965.582520,904.678528 970.667969,898.819031 
	C979.483765,888.894653 988.299500,878.970276 997.728088,868.766785 
M817.214233,1238.326660 
	C812.766541,1255.671875 808.404785,1273.039673 803.852844,1290.357544 
	C795.012085,1323.992432 789.917114,1358.323364 785.128845,1392.681763 
	C782.736145,1409.850708 781.210510,1427.174927 780.114197,1444.480957 
	C778.912598,1463.448364 778.347351,1482.471558 778.092896,1501.478271 
	C777.904419,1515.551636 778.605103,1529.639160 779.011658,1543.717407 
	C779.225891,1551.139160 779.609863,1558.557495 780.040344,1565.970215 
	C780.112366,1567.209717 780.814331,1568.412720 781.452148,1570.306641 
	C782.874451,1567.196533 783.939331,1564.865112 785.006531,1562.534790 
	C791.727844,1547.858154 798.235107,1533.078491 805.245544,1518.541260 
	C810.082520,1508.511108 815.616089,1498.816772 821.161072,1488.333618 
	C829.451172,1474.491211 837.528381,1460.515381 846.095886,1446.846802 
	C853.479675,1435.066772 861.422119,1423.636841 869.755066,1411.785522 
	C888.518921,1387.895142 907.282837,1364.004761 926.678101,1339.844727 
	C942.133911,1323.267090 957.589722,1306.689453 973.669495,1289.845215 
	C975.197571,1288.338745 976.683350,1286.786377 978.260681,1285.333374 
	C988.844238,1275.583984 999.447205,1265.855713 1010.668030,1255.846802 
	C1018.918213,1248.864502 1027.170166,1241.884277 1035.417847,1234.899170 
	C1041.651123,1229.620239 1047.879028,1224.334717 1054.741211,1218.781738 
	C1059.263428,1215.288330 1063.683350,1211.652100 1068.325928,1208.326904 
	C1086.193848,1195.529175 1104.132935,1182.831055 1122.688721,1169.816650 
	C1127.143555,1166.874512 1131.583984,1163.910400 1136.056030,1160.994873 
	C1144.708008,1155.354126 1153.377930,1149.740845 1162.763062,1144.011230 
	C1179.855225,1134.046997 1196.947388,1124.082764 1214.769165,1114.011230 
	C1219.799438,1111.353271 1224.801025,1108.639282 1229.865479,1106.048096 
	C1242.910400,1099.373901 1255.983032,1092.754028 1269.773926,1086.007202 
	C1286.846313,1078.282593 1303.918701,1070.557983 1321.700684,1062.731812 
	C1335.816895,1056.860352 1349.933105,1050.989014 1364.817749,1045.032104 
	C1372.165161,1042.341064 1379.478149,1039.551636 1386.867065,1036.979614 
	C1402.237671,1031.629517 1417.648438,1026.394653 1433.848511,1021.027344 
	C1437.803589,1020.001465 1441.790405,1019.082825 1445.706787,1017.925964 
	C1452.421143,1015.942444 1459.658691,1014.835754 1465.657471,1011.518188 
	C1476.803467,1005.353821 1482.587769,994.363464 1486.878662,982.844727 
	C1495.231689,960.421021 1498.145020,936.868469 1498.772705,913.211121 
	C1499.416138,888.964905 1498.480225,864.668823 1497.917969,840.401978 
	C1497.665771,829.510864 1496.981689,818.603027 1495.885986,807.764221 
	C1494.200562,791.093384 1492.043457,774.469116 1489.990234,757.836975 
	C1488.038818,742.029358 1486.350586,726.175415 1483.850830,710.452515 
	C1480.225098,687.646118 1475.942749,664.944519 1472.028809,642.183044 
	C1471.531860,639.292847 1470.525879,638.714233 1467.657593,639.603821 
	C1456.140625,643.175781 1444.539429,646.476440 1432.185669,649.982117 
	C1427.179932,651.457458 1422.113770,652.755920 1417.179077,654.439697 
	C1399.096313,660.609863 1381.057129,666.908264 1362.291748,673.288025 
	C1358.354980,674.860291 1354.394775,676.376587 1350.486084,678.015747 
	C1340.280396,682.295532 1330.097168,686.628967 1319.143188,690.999573 
	C1302.418335,698.624329 1285.693481,706.249146 1268.230347,714.008362 
	C1249.786499,723.653748 1231.342773,733.299072 1212.186401,743.021545 
	C1203.375610,748.237183 1194.473755,753.306335 1185.780029,758.710388 
	C1177.393066,763.923828 1169.220825,769.482910 1160.244629,775.007507 
	C1147.158325,784.063416 1134.072021,793.119263 1120.318237,802.257507 
	C1114.261841,806.961670 1108.150635,811.597412 1102.161255,816.385254 
	C1091.691040,824.754822 1081.179321,833.078979 1070.911499,841.692383 
	C1064.380249,847.171326 1058.257935,853.137878 1051.340332,859.169434 
	C1047.812744,862.361450 1044.163086,865.429810 1040.780396,868.768616 
	C1030.635986,878.781433 1020.581299,888.885681 1010.543579,899.005859 
	C1009.803162,899.752380 1009.477417,900.910400 1008.345520,902.160706 
	C999.960571,911.209534 991.443237,920.140747 983.246582,929.356995 
	C979.180298,933.929016 975.703186,939.024902 971.335449,944.169678 
	C969.898193,945.939514 968.386658,947.654602 967.035095,949.487610 
	C952.875366,968.691345 938.741272,987.913940 924.077759,1007.773254 
	C919.438354,1015.005981 914.612305,1022.126953 910.200134,1029.495728 
	C902.127014,1042.978760 893.924011,1056.406738 886.476379,1070.235352 
	C879.496521,1083.195312 873.424011,1096.644043 866.310242,1110.214355 
	C864.274170,1114.606323 862.021912,1118.912476 860.237244,1123.404419 
	C848.881348,1151.987427 837.428955,1180.535034 826.456726,1209.265625 
	C822.906433,1218.562012 820.704651,1228.373291 817.214233,1238.326660 
z"/>
<path fill="#FFFFFF" opacity="1.000000" stroke="none" 
	d="
M701.000000,1638.000000 
	C467.732727,1638.000000 234.465454,1638.000000 1.000000,1638.000000 
	C1.000000,1381.638672 1.000000,1125.277222 1.400177,868.631348 
	C2.532757,876.682190 3.187953,885.025208 4.018191,893.350830 
	C4.942340,902.618042 5.621687,911.935913 7.134299,921.112000 
	C9.424333,935.004456 11.855690,948.908630 15.098027,962.601562 
	C21.336046,988.945862 27.377151,1015.383606 35.025772,1041.332764 
	C41.564869,1063.517700 50.024464,1085.152344 58.056221,1106.874634 
	C62.217007,1118.127686 67.292351,1129.042603 71.979507,1140.481201 
	C75.803589,1149.193848 79.220482,1157.736328 83.476967,1165.837769 
	C94.129211,1186.112427 105.018188,1206.266968 116.121414,1226.298340 
	C119.927933,1233.165649 124.652916,1239.523926 128.980545,1246.476807 
	C129.702606,1248.096680 130.312820,1249.415039 131.115891,1250.603149 
	C140.072205,1263.852417 148.726852,1277.322998 158.133789,1290.245483 
	C166.748871,1302.080078 176.185104,1313.317017 185.215393,1325.165039 
	C190.234543,1331.297729 195.177017,1337.193848 200.385376,1342.844971 
	C212.505844,1355.995605 224.754395,1369.028076 237.073486,1382.418091 
	C252.120483,1396.977905 266.993866,1411.282471 282.012238,1425.433105 
	C285.046539,1428.292114 288.628937,1430.569336 292.081970,1433.425781 
	C303.826691,1443.160522 315.370209,1452.682617 327.104034,1461.964355 
	C332.531616,1466.257690 338.330322,1470.081909 344.091858,1474.437012 
	C350.018250,1478.872681 355.697815,1483.166138 361.634338,1487.068604 
	C371.992279,1493.877686 382.508453,1500.446167 393.092163,1507.436279 
	C401.569885,1512.848633 409.824860,1518.093628 418.282837,1522.987915 
	C426.735779,1527.879395 435.391693,1532.420166 444.109802,1537.434692 
	C462.173828,1546.781128 480.086761,1555.807495 498.336365,1564.991943 
	C515.114990,1572.377930 531.557007,1579.605591 548.374268,1586.912109 
	C562.817078,1592.363037 576.884644,1597.735229 591.128418,1603.444824 
	C596.474854,1605.528198 601.621948,1607.346436 606.819458,1609.007202 
	C626.717896,1615.365356 646.601990,1621.771240 666.552979,1627.961304 
	C677.974121,1631.504761 689.513733,1634.666382 701.000000,1638.000000 
z"/>
<path fill="#009306" opacity="1.000000" stroke="none" 
	d="
M474.166992,39.020546 
	C480.776093,26.593010 487.385223,14.165475 493.997162,1.368970 
	C494.000000,1.000000 494.500000,1.000000 494.750000,0.999997 
	C503.942596,7.101237 512.885193,13.202480 521.651855,19.911404 
	C521.317322,22.656055 521.019897,24.793018 521.019714,26.930000 
	C520.999023,313.159058 521.000122,599.388123 520.998230,885.617188 
	C520.998169,888.116150 520.972046,890.615051 520.958130,893.114014 
	C515.141541,884.412415 508.873352,875.974487 503.605835,866.952271 
	C493.765350,850.097351 484.505768,832.903320 474.993713,815.006592 
	C474.988678,557.372620 474.995880,300.582489 474.965607,43.792393 
	C474.965424,42.201744 474.444641,40.611160 474.166992,39.020546 
z"/>
<path fill="#00C90C" opacity="1.000000" stroke="none" 
	d="
M701.250000,1638.000000 
	C689.513733,1634.666382 677.974121,1631.504761 666.552979,1627.961304 
	C646.601990,1621.771240 626.717896,1615.365356 606.819458,1609.007202 
	C601.621948,1607.346436 596.474854,1605.528198 591.296631,1603.053711 
	C591.525757,1600.368408 591.963379,1598.412231 591.968872,1596.454834 
	C592.021057,1577.803101 591.998779,1559.151367 592.000183,1540.499512 
	C592.012573,1380.626831 592.025330,1220.754150 592.037964,1060.881470 
	C604.583008,1072.634521 617.107788,1084.409424 629.692627,1096.119629 
	C631.857971,1098.134521 632.209717,1100.088257 631.581848,1103.082886 
	C630.546021,1108.023560 630.332092,1113.158569 630.036377,1118.227173 
	C629.574646,1126.139526 629.273865,1134.062744 629.011414,1141.984863 
	C628.310059,1163.154053 627.669983,1184.325195 626.996155,1205.495239 
	C626.675049,1215.581177 626.042786,1225.667114 626.072021,1235.751465 
	C626.109924,1248.836182 626.531006,1261.924561 627.039124,1275.001709 
	C627.525452,1287.517090 628.141418,1300.033936 629.050293,1312.524780 
	C630.180542,1328.058228 631.383850,1343.596924 633.077942,1359.076294 
	C635.099670,1377.549316 636.989075,1396.080933 640.171875,1414.372192 
	C644.859680,1441.313110 649.841675,1468.254028 656.173767,1494.843628 
	C662.889648,1523.044800 670.520447,1551.092285 679.293701,1578.717163 
	C685.418945,1598.004028 694.143005,1616.465210 701.683289,1635.304321 
	C701.918152,1635.891113 701.897949,1636.579956 701.998291,1637.610596 
	C702.000000,1638.000000 701.500000,1638.000000 701.250000,1638.000000 
z"/>
<path fill="#00C90C" opacity="1.000000" stroke="none" 
	d="
M1455.999878,1093.167480 
	C1467.469849,1093.111694 1478.947144,1092.772827 1490.407715,1093.074951 
	C1503.568115,1093.421875 1516.725830,1094.158447 1529.861572,1095.062256 
	C1540.291870,1095.779785 1550.687378,1097.003662 1561.549072,1098.001343 
	C1562.000000,1098.750000 1562.000000,1099.500000 1562.000000,1100.625000 
	C1558.430054,1113.102783 1555.445312,1125.417236 1551.162109,1137.261963 
	C1543.506104,1158.433594 1535.478149,1179.493164 1526.815186,1200.270020 
	C1520.796509,1214.704712 1514.080200,1228.931274 1506.555176,1242.635498 
	C1495.684814,1262.432617 1483.926514,1281.749023 1472.281860,1301.111084 
	C1467.792603,1308.575684 1462.577393,1315.603760 1457.201660,1322.578369 
	C1456.473755,1320.203003 1456.030884,1318.080200 1456.029785,1315.957031 
	C1455.994141,1241.693848 1455.999878,1167.430542 1455.999878,1093.167480 
z"/>
<path fill="#008405" opacity="1.000000" stroke="none" 
	d="
M71.954536,1140.110352 
	C67.292351,1129.042603 62.217007,1118.127686 58.056221,1106.874634 
	C50.024464,1085.152344 41.564869,1063.517700 35.025772,1041.332764 
	C27.377151,1015.383606 21.336046,988.945862 15.098027,962.601562 
	C11.855690,948.908630 9.424333,935.004456 7.134299,921.112000 
	C5.621687,911.935913 4.942340,902.618042 4.018191,893.350830 
	C3.187953,885.025208 2.532757,876.682190 1.400177,868.173401 
	C1.000000,859.979065 1.000000,851.958191 1.000000,843.468628 
	C24.702187,843.339172 48.404373,843.678345 72.552818,844.550171 
	C72.999306,940.992126 73.007225,1036.901367 72.956017,1132.810547 
	C72.954720,1135.243896 72.302948,1137.677124 71.954536,1140.110352 
z"/>
<path fill="#00AF09" opacity="1.000000" stroke="none" 
	d="
M634.043579,109.888184 
	C644.408325,119.807159 654.924133,129.574524 665.082031,139.701004 
	C671.338867,145.938492 677.049255,152.724152 682.656555,159.703522 
	C681.872070,162.290634 681.054626,164.437820 681.054138,166.585220 
	C680.996765,418.472687 680.999878,670.360168 681.000916,922.247620 
	C681.000916,923.746826 680.770264,925.305664 681.114075,926.723450 
	C681.327820,927.604797 682.421997,928.272644 683.120972,929.036316 
	C670.032959,966.491516 656.948181,1003.947876 643.837646,1041.395264 
	C643.527771,1042.280151 642.929993,1043.064453 642.041260,1044.658447 
	C638.610779,1040.848755 635.382263,1037.263428 632.338684,1033.079102 
	C632.682373,1030.342773 632.980164,1028.205322 632.980286,1026.067871 
	C633.000977,723.276794 632.997375,420.485687 633.043152,117.694626 
	C633.043579,115.092430 633.695740,112.490334 634.043579,109.888184 
z"/>
<path fill="#009B07" opacity="1.000000" stroke="none" 
	d="
M520.980225,893.472046 
	C520.972046,890.615051 520.998169,888.116150 520.998230,885.617188 
	C521.000122,599.388123 520.999023,313.159058 521.019714,26.930000 
	C521.019897,24.793018 521.317322,22.656055 521.790894,20.234890 
	C529.899963,25.300579 537.777893,30.533613 545.461182,36.038185 
	C551.362610,40.266182 557.018921,44.836288 562.892212,50.000431 
	C562.666809,53.865623 562.041931,56.984600 562.041443,60.103680 
	C561.996765,341.783966 562.000549,623.464233 561.998352,905.144531 
	C561.998230,920.469421 561.974976,935.794312 561.962463,951.119202 
	C554.651672,941.496521 547.125061,932.028320 540.092590,922.206299 
	C533.458801,912.941223 527.345032,903.303711 520.980225,893.472046 
z"/>
<path fill="#00A508" opacity="1.000000" stroke="none" 
	d="
M633.918823,109.577812 
	C633.695740,112.490334 633.043579,115.092430 633.043152,117.694626 
	C632.997375,420.485687 633.000977,723.276794 632.980286,1026.067871 
	C632.980164,1028.205322 632.682373,1030.342773 632.208252,1032.763916 
	C622.774475,1023.043396 613.628296,1013.064209 604.550659,1003.023132 
	C600.627808,998.683716 596.846497,994.216431 593.144653,989.065552 
	C593.525635,985.866699 593.970337,983.409607 593.970581,980.952454 
	C594.001709,681.428223 593.999939,381.903992 594.001587,82.379768 
	C594.001587,79.881081 594.025940,77.382393 594.038940,74.883698 
	C597.139648,77.207069 600.415894,79.331810 603.309204,81.889656 
	C613.541626,90.935547 623.643005,100.129578 633.918823,109.577812 
z"/>
<path fill="#008B05" opacity="1.000000" stroke="none" 
	d="
M474.010468,39.349522 
	C474.444641,40.611160 474.965424,42.201744 474.965607,43.792393 
	C474.995880,300.582489 474.988678,557.372620 474.970642,814.638550 
	C472.301849,810.373169 469.434235,805.736511 467.023376,800.873474 
	C451.865540,770.297791 438.281830,739.045715 427.260681,706.149597 
	C427.681915,704.010071 427.980133,702.539185 427.980316,701.068237 
	C428.001190,520.740112 428.003082,340.411957 427.953979,160.083817 
	C427.953491,158.374298 427.258423,156.664993 426.887665,154.955582 
	C430.597473,144.033981 433.787994,132.901398 438.122284,122.233513 
	C447.961365,98.016731 458.329437,74.014191 468.573181,49.963192 
	C470.079407,46.426773 472.081360,43.101482 474.010468,39.349522 
z"/>
<path fill="#00B80A" opacity="1.000000" stroke="none" 
	d="
M497.999695,1564.833862 
	C480.086761,1555.807495 462.173828,1546.781128 444.122009,1536.958740 
	C443.988770,1455.693237 443.992462,1375.223877 444.000488,1294.754395 
	C444.011780,1182.130615 444.026276,1069.506714 444.039429,956.882935 
	C452.704773,961.767944 461.484131,966.463379 470.005768,971.587463 
	C479.927216,977.553284 489.623138,983.894287 499.235107,990.582520 
	C498.702209,993.487366 498.044312,995.882202 498.043701,998.277100 
	C497.996033,1187.129395 497.999817,1375.981567 497.999695,1564.833862 
z"/>
<path fill="#00BE0B" opacity="1.000000" stroke="none" 
	d="
M778.394897,717.781982 
	C769.276855,735.412170 759.765503,752.852539 751.142883,770.721741 
	C740.931091,791.884216 731.485596,813.416504 721.210327,834.557129 
	C720.475220,832.035339 720.029907,829.744995 720.029541,827.454590 
	C719.997681,622.554504 719.999939,417.654388 720.000977,212.754288 
	C720.000977,211.255112 719.770752,209.696564 720.113953,208.278458 
	C720.327698,207.395081 721.418823,206.723999 722.116211,205.957687 
	C727.077637,212.141220 732.457520,218.038300 736.922424,224.561676 
	C750.595703,244.539124 763.918518,264.756470 777.369263,284.886139 
	C777.629639,285.275909 777.787659,285.734131 778.005615,286.998840 
	C778.011841,429.330658 778.004517,570.824097 778.016541,712.317505 
	C778.016724,714.138977 778.263306,715.960510 778.394897,717.781982 
z"/>
<path fill="#00B209" opacity="1.000000" stroke="none" 
	d="
M443.901672,956.559509 
	C444.026276,1069.506714 444.011780,1182.130615 444.000488,1294.754395 
	C443.992462,1375.223877 443.988770,1455.693237 443.970917,1536.638672 
	C435.391693,1532.420166 426.735779,1527.879395 418.282837,1522.987915 
	C409.824860,1518.093628 401.569885,1512.848633 393.104492,1506.960449 
	C392.988678,1316.946655 392.990051,1127.729736 393.041443,938.512939 
	C393.042206,935.730774 393.665436,932.948669 393.998138,930.166565 
	C410.586731,938.856384 427.175354,947.546265 443.901672,956.559509 
z"/>
<path fill="#009F07" opacity="1.000000" stroke="none" 
	d="
M593.913696,74.572197 
	C594.025940,77.382393 594.001587,79.881081 594.001587,82.379768 
	C593.999939,381.903992 594.001709,681.428223 593.970581,980.952454 
	C593.970337,983.409607 593.525635,985.866699 593.120239,988.714844 
	C586.644226,981.813965 580.224854,974.614685 574.067749,967.197632 
	C569.926941,962.209595 566.156982,956.913635 562.091797,951.437317 
	C561.974976,935.794312 561.998230,920.469421 561.998352,905.144531 
	C562.000549,623.464233 561.996765,341.783966 562.041443,60.103680 
	C562.041931,56.984600 562.666809,53.865623 563.021240,50.316330 
	C573.291077,58.010937 583.539795,66.135811 593.913696,74.572197 
z"/>
<path fill="#00A508" opacity="1.000000" stroke="none" 
	d="
M343.960754,1474.118774 
	C338.330322,1470.081909 332.531616,1466.257690 327.104034,1461.964355 
	C315.370209,1452.682617 303.826691,1443.160522 292.094269,1432.949829 
	C291.988800,1381.183350 291.994812,1330.203979 291.999939,1279.224487 
	C292.013123,1148.777100 292.025909,1018.329651 292.038879,887.882263 
	C301.701691,891.256042 311.404175,894.521301 321.015045,898.037109 
	C328.970367,900.947266 336.817535,904.153076 344.712341,907.950928 
	C344.474670,910.797363 344.031982,912.920410 344.030182,915.043884 
	C343.990723,962.008240 344.003235,1008.972534 343.999390,1055.936890 
	C343.988007,1195.330811 343.973816,1334.724854 343.960754,1474.118774 
z"/>
<path fill="#009F07" opacity="1.000000" stroke="none" 
	d="
M291.862946,887.545349 
	C292.025909,1018.329651 292.013123,1148.777100 291.999939,1279.224487 
	C291.994812,1330.203979 291.988800,1381.183350 291.970917,1432.638794 
	C288.628937,1430.569336 285.046539,1428.292114 282.012238,1425.433105 
	C266.993866,1411.282471 252.120483,1396.977905 237.241959,1382.026978 
	C237.525330,1379.035767 237.970001,1376.745117 237.970444,1374.454590 
	C238.002579,1206.691650 237.999481,1038.928711 237.999222,871.165833 
	C243.841843,872.731201 249.732849,874.137268 255.517029,875.894958 
	C267.603546,879.567749 279.633698,883.426208 291.862946,887.545349 
z"/>
<path fill="#00BE0B" opacity="1.000000" stroke="none" 
	d="
M498.336365,1564.991943 
	C497.999817,1375.981567 497.996033,1187.129395 498.043701,998.277100 
	C498.044312,995.882202 498.702209,993.487366 499.475830,990.877441 
	C515.717041,1002.051758 531.533752,1013.443726 547.365784,1024.814453 
	C547.743164,1025.085449 548.290710,1025.119751 548.735352,1025.969849 
	C548.474548,1028.965820 548.029907,1031.256470 548.029480,1033.547119 
	C547.997070,1217.975830 547.999329,1402.404663 547.998962,1586.833374 
	C531.557007,1579.605591 515.114990,1572.377930 498.336365,1564.991943 
z"/>
<path fill="#00AC09" opacity="1.000000" stroke="none" 
	d="
M344.091858,1474.437012 
	C343.973816,1334.724854 343.988007,1195.330811 343.999390,1055.936890 
	C344.003235,1008.972534 343.990723,962.008240 344.030182,915.043884 
	C344.031982,912.920410 344.474670,910.797363 344.880402,908.282959 
	C361.144287,915.214600 377.239807,922.537415 393.666718,930.013428 
	C393.665436,932.948669 393.042206,935.730774 393.041443,938.512939 
	C392.990051,1127.729736 392.988678,1316.946655 392.970673,1506.639404 
	C382.508453,1500.446167 371.992279,1493.877686 361.634338,1487.068604 
	C355.697815,1483.166138 350.018250,1478.872681 344.091858,1474.437012 
z"/>
<path fill="#00B80A" opacity="1.000000" stroke="none" 
	d="
M722.060791,205.605103 
	C721.418823,206.723999 720.327698,207.395081 720.113953,208.278458 
	C719.770752,209.696564 720.000977,211.255112 720.000977,212.754288 
	C719.999939,417.654388 719.997681,622.554504 720.029541,827.454590 
	C720.029907,829.744995 720.475220,832.035339 720.881409,834.716675 
	C718.654907,841.232605 716.324402,847.383667 713.853210,853.477722 
	C704.608154,876.276550 695.304443,899.051575 686.063110,921.851929 
	C685.162048,924.075134 684.539307,926.411072 683.454224,928.865479 
	C682.421997,928.272644 681.327820,927.604797 681.114075,926.723450 
	C680.770264,925.305664 681.000916,923.746826 681.000916,922.247620 
	C680.999878,670.360168 680.996765,418.472687 681.054138,166.585220 
	C681.054626,164.437820 681.872070,162.290634 682.712952,160.052155 
	C690.436646,168.110321 697.884277,176.148682 705.034058,184.443756 
	C710.875671,191.221054 716.361755,198.304718 722.060791,205.605103 
z"/>
<path fill="#DBFA39" opacity="1.000000" stroke="none" 
	d="
M1433.042725,1021.112488 
	C1417.648438,1026.394653 1402.237671,1031.629517 1386.867065,1036.979614 
	C1379.478149,1039.551636 1372.165161,1042.341064 1364.420166,1044.597900 
	C1364.016724,924.944336 1364.021606,805.724976 1363.962524,686.505615 
	C1363.960327,682.056396 1363.336060,677.607483 1363.001587,673.158386 
	C1381.057129,666.908264 1399.096313,660.609863 1417.179077,654.439697 
	C1422.113770,652.755920 1427.179932,651.457458 1432.586914,650.407715 
	C1432.992188,663.492493 1432.997925,676.151611 1432.999634,688.810730 
	C1433.014404,799.578003 1433.028564,910.345215 1433.042725,1021.112488 
z"/>
<path fill="#009B07" opacity="1.000000" stroke="none" 
	d="
M237.641861,870.992126 
	C237.999481,1038.928711 238.002579,1206.691650 237.970444,1374.454590 
	C237.970001,1376.745117 237.525330,1379.035767 237.119507,1381.717407 
	C224.754395,1369.028076 212.505844,1355.995605 200.385376,1342.844971 
	C195.177017,1337.193848 190.234543,1331.297729 185.452225,1324.670532 
	C185.822327,1321.502075 185.989304,1319.176025 185.989502,1316.849976 
	C186.001831,1167.071167 185.995239,1017.292419 186.042206,867.513672 
	C186.043076,864.730774 186.666153,861.947937 186.998917,859.165100 
	C194.559341,860.751953 202.150940,862.205200 209.672195,863.959900 
	C218.907028,866.114380 228.083054,868.520874 237.641861,870.992126 
z"/>
<path fill="#68E622" opacity="1.000000" stroke="none" 
	d="
M1051.952148,858.885742 
	C1058.257935,853.137878 1064.380249,847.171326 1070.911499,841.692383 
	C1081.179321,833.078979 1091.691040,824.754822 1102.161255,816.385254 
	C1108.150635,811.597412 1114.261841,806.961670 1120.655029,802.673340 
	C1120.992798,922.992371 1120.987793,1042.895508 1121.038940,1162.798584 
	C1121.040039,1165.231079 1121.695312,1167.663452 1122.045410,1170.095825 
	C1104.132935,1182.831055 1086.193848,1195.529175 1068.325928,1208.326904 
	C1063.683350,1211.652100 1059.263428,1215.288330 1054.109863,1218.632324 
	C1053.319092,1216.346069 1053.020386,1214.209229 1053.020020,1212.072266 
	C1052.997437,1096.777832 1053.006470,981.483398 1052.956299,866.188965 
	C1052.955322,863.754456 1052.301514,861.320129 1051.952148,858.885742 
z"/>
<path fill="#009306" opacity="1.000000" stroke="none" 
	d="
M186.634430,858.986023 
	C186.666153,861.947937 186.043076,864.730774 186.042206,867.513672 
	C185.995239,1017.292419 186.001831,1167.071167 185.989502,1316.849976 
	C185.989304,1319.176025 185.822327,1321.502075 185.496338,1324.322754 
	C176.185104,1313.317017 166.748871,1302.080078 158.133789,1290.245483 
	C148.726852,1277.322998 140.072205,1263.852417 131.115891,1250.603149 
	C130.312820,1249.415039 129.702606,1248.096680 128.992828,1246.035034 
	C129.321869,1233.118042 129.948120,1221.005005 129.955521,1208.891602 
	C130.028793,1088.983276 129.999603,969.075012 129.999420,849.166748 
	C140.711395,850.777710 151.447723,852.244385 162.127380,854.046875 
	C170.212418,855.411377 178.225082,857.204529 186.634430,858.986023 
z"/>
<path fill="#00C40B" opacity="1.000000" stroke="none" 
	d="
M548.374268,1586.912109 
	C547.999329,1402.404663 547.997070,1217.975830 548.029480,1033.547119 
	C548.029907,1031.256470 548.474548,1028.965820 548.880493,1026.284180 
	C563.292908,1037.346558 577.536682,1048.800049 591.909180,1060.567383 
	C592.025330,1220.754150 592.012573,1380.626831 592.000183,1540.499512 
	C591.998779,1559.151367 592.021057,1577.803101 591.968872,1596.454834 
	C591.963379,1598.412231 591.525757,1600.368408 591.120422,1602.716309 
	C576.884644,1597.735229 562.817078,1592.363037 548.374268,1586.912109 
z"/>
<path fill="#00C90C" opacity="1.000000" stroke="none" 
	d="
M778.665771,717.517944 
	C778.263306,715.960510 778.016724,714.138977 778.016541,712.317505 
	C778.004517,570.824097 778.011841,429.330658 778.030457,287.361328 
	C781.034424,291.632599 784.331177,296.217072 786.961365,301.156464 
	C796.089233,318.298004 805.763306,335.210358 813.767090,352.872650 
	C823.131470,373.537323 831.862671,394.587952 839.220215,416.036591 
	C847.418945,439.937592 854.456177,464.299042 860.667297,488.797729 
	C864.682434,504.634369 866.645508,521.030396 868.887756,537.264160 
	C870.478149,548.778809 870.994202,560.441528 872.005798,572.036804 
	C872.090698,573.010010 872.249023,573.983093 872.456177,574.938293 
	C873.579285,580.116577 873.401672,584.443054 868.969360,588.739014 
	C845.276184,611.702637 826.105774,638.264160 809.003906,666.343140 
	C798.752808,683.174133 788.944153,700.274597 778.665771,717.517944 
z"/>
<path fill="#1AD812" opacity="1.000000" stroke="none" 
	d="
M697.885559,996.947021 
	C700.049011,987.683350 701.720398,978.270386 704.475769,969.186218 
	C710.686523,948.709961 717.020630,928.251648 724.096802,908.063660 
	C729.523254,892.582092 736.161499,877.525208 742.895752,862.348145 
	C744.019653,864.968323 744.935242,867.519653 744.936523,870.071350 
	C745.005371,1009.852966 744.992432,1149.634644 745.043823,1289.416260 
	C745.044678,1291.624512 745.739807,1293.832642 746.110962,1296.040771 
	C743.262939,1307.312866 740.083679,1318.513916 737.645874,1329.874023 
	C734.145142,1346.187622 730.921143,1362.571533 728.075012,1379.011230 
	C725.687927,1392.799927 723.740601,1406.679932 722.110840,1420.579468 
	C720.963440,1430.364746 720.219849,1440.244751 720.094666,1450.092651 
	C719.805786,1472.823242 720.002930,1495.560181 720.002930,1518.294556 
	C719.414307,1518.367188 718.825684,1518.439819 718.237061,1518.512451 
	C715.511841,1509.776001 712.429932,1501.131836 710.138367,1492.283081 
	C705.847412,1475.713745 702.011719,1459.026489 698.004639,1442.384033 
	C697.890625,1441.910767 697.979614,1441.388428 698.247864,1440.188721 
	C698.682739,1438.019653 698.984436,1436.550903 698.984680,1435.082031 
	C699.006104,1290.743774 699.008484,1146.405518 698.958252,1002.067322 
	C698.957703,1000.360413 698.258606,998.653809 697.885559,996.947021 
z"/>
<path fill="#00B209" opacity="1.000000" stroke="none" 
	d="
M1294.109009,1485.046631 
	C1288.387939,1489.214722 1282.910645,1493.780396 1276.896240,1497.470215 
	C1263.308716,1505.806152 1249.455566,1513.709351 1235.355225,1521.353271 
	C1234.999878,1394.000732 1234.999634,1267.083374 1234.999512,1140.166138 
	C1249.229248,1134.773438 1263.444092,1129.341309 1277.696899,1124.010254 
	C1282.491333,1122.216919 1287.381836,1120.680664 1292.614258,1119.554932 
	C1293.000000,1239.694702 1292.994507,1359.306519 1293.046143,1478.918457 
	C1293.046997,1480.961304 1293.739258,1483.003906 1294.109009,1485.046631 
z"/>
<path fill="#E9FC3C" opacity="1.000000" stroke="none" 
	d="
M1433.445557,1021.069946 
	C1433.028564,910.345215 1433.014404,799.578003 1432.999634,688.810730 
	C1432.997925,676.151611 1432.992188,663.492493 1432.978760,650.355408 
	C1444.539429,646.476440 1456.140625,643.175781 1467.657593,639.603821 
	C1470.525879,638.714233 1471.531860,639.292847 1472.028809,642.183044 
	C1475.942749,664.944519 1480.225098,687.646118 1483.850830,710.452515 
	C1486.350586,726.175415 1488.038818,742.029358 1489.990234,757.836975 
	C1492.043457,774.469116 1494.200562,791.093384 1495.885986,807.764221 
	C1496.981689,818.603027 1497.665771,829.510864 1497.917969,840.401978 
	C1498.480225,864.668823 1499.416138,888.964905 1498.772705,913.211121 
	C1498.145020,936.868469 1495.231689,960.421021 1486.878662,982.844727 
	C1482.587769,994.363464 1476.803467,1005.353821 1465.657471,1011.518188 
	C1459.658691,1014.835754 1452.421143,1015.942444 1445.706787,1017.925964 
	C1441.790405,1019.082825 1437.803589,1020.001465 1433.445557,1021.069946 
z"/>
<path fill="#00A508" opacity="1.000000" stroke="none" 
	d="
M1183.043091,1547.115479 
	C1172.914185,1551.407349 1162.868042,1555.910400 1152.630615,1559.925659 
	C1144.147705,1563.252808 1135.439453,1566.005249 1126.423584,1568.589111 
	C1126.010742,1448.522339 1126.012451,1328.878540 1125.956421,1209.234863 
	C1125.955200,1206.451416 1125.305298,1203.668335 1124.957886,1200.885010 
	C1143.714600,1189.254883 1162.471313,1177.624878 1181.606323,1166.413330 
	C1181.989746,1290.643311 1181.987671,1414.454468 1182.043579,1538.265747 
	C1182.044922,1541.215820 1182.695435,1544.165527 1183.043091,1547.115479 
z"/>
<path fill="#A0F02D" opacity="1.000000" stroke="none" 
	d="
M1269.044678,1086.112549 
	C1255.983032,1092.754028 1242.910400,1099.373901 1229.865479,1106.048096 
	C1224.801025,1108.639282 1219.799438,1111.353271 1214.392334,1113.587891 
	C1214.010254,991.801331 1214.010620,870.437927 1213.954346,749.074585 
	C1213.953369,747.031067 1213.265869,744.987854 1212.898926,742.944458 
	C1231.342773,733.299072 1249.786499,723.653748 1268.608887,714.418823 
	C1268.991699,727.655151 1268.997803,740.481018 1268.999634,753.306885 
	C1269.015015,864.242126 1269.029785,975.177307 1269.044678,1086.112549 
z"/>
<path fill="#00AC09" opacity="1.000000" stroke="none" 
	d="
M1183.421875,1547.059692 
	C1182.695435,1544.165527 1182.044922,1541.215820 1182.043579,1538.265747 
	C1181.987671,1414.454468 1181.989746,1290.643311 1181.973022,1166.355713 
	C1197.036011,1158.259033 1212.100952,1150.619629 1227.195679,1143.039185 
	C1229.477905,1141.893066 1231.898193,1141.021851 1234.627197,1140.094727 
	C1234.999634,1267.083374 1234.999878,1394.000732 1234.999268,1521.375977 
	C1217.932617,1530.223877 1200.866699,1538.613892 1183.421875,1547.059692 
z"/>
<path fill="#008B05" opacity="1.000000" stroke="none" 
	d="
M129.563812,849.092163 
	C129.999603,969.075012 130.028793,1088.983276 129.955521,1208.891602 
	C129.948120,1221.005005 129.321869,1233.118042 128.970520,1245.673096 
	C124.652916,1239.523926 119.927933,1233.165649 116.121414,1226.298340 
	C105.018188,1206.266968 94.129211,1186.112427 83.476967,1165.837769 
	C79.220482,1157.736328 75.803589,1149.193848 71.979507,1140.481201 
	C72.302948,1137.677124 72.954720,1135.243896 72.956017,1132.810547 
	C73.007225,1036.901367 72.999306,940.992126 72.998421,844.625000 
	C84.231392,845.074707 95.468246,845.944580 106.697495,846.903503 
	C114.180016,847.542419 121.651680,848.308411 129.563812,849.092163 
z"/>
<path fill="#B3F331" opacity="1.000000" stroke="none" 
	d="
M1269.409302,1086.059814 
	C1269.029785,975.177307 1269.015015,864.242126 1268.999634,753.306885 
	C1268.997803,740.481018 1268.991699,727.655151 1268.978027,714.351562 
	C1285.693481,706.249146 1302.418335,698.624329 1319.836426,691.258667 
	C1320.686401,693.155823 1320.980103,694.793884 1320.980347,696.431885 
	C1320.998901,818.565735 1320.994141,940.699524 1320.991089,1062.833374 
	C1303.918701,1070.557983 1286.846313,1078.282593 1269.409302,1086.059814 
z"/>
<path fill="#7CEA26" opacity="1.000000" stroke="none" 
	d="
M886.960022,644.872192 
	C902.728821,629.659546 918.501099,614.450500 934.262878,599.230530 
	C936.643372,596.931885 938.974854,594.582397 941.660034,592.674316 
	C941.992371,702.938843 941.981750,812.785339 942.065796,922.631836 
	C942.067871,925.319031 943.121765,928.005371 943.685059,930.692139 
	C938.394958,937.683228 933.105042,944.674561 927.814514,951.665344 
	C918.262146,964.287476 908.653137,976.867310 899.185486,989.552673 
	C895.591125,994.368652 892.321655,999.427124 888.548462,1004.140625 
	C887.796875,997.959045 887.059692,992.012024 887.055359,986.064453 
	C886.972107,872.333740 886.974976,758.602966 886.960022,644.872192 
z"/>
<path fill="#8DEC29" opacity="1.000000" stroke="none" 
	d="
M1212.542725,742.983032 
	C1213.265869,744.987854 1213.953369,747.031067 1213.954346,749.074585 
	C1214.010620,870.437927 1214.010254,991.801331 1214.027466,1113.641602 
	C1196.947388,1124.082764 1179.855225,1134.046997 1162.389404,1143.587158 
	C1162.010498,1022.840759 1162.011353,902.518311 1161.956299,782.195862 
	C1161.955200,779.760498 1161.302734,777.325317 1160.954102,774.890137 
	C1169.220825,769.482910 1177.393066,763.923828 1185.780029,758.710388 
	C1194.473755,753.306335 1203.375610,748.237183 1212.542725,742.983032 
z"/>
<path fill="#00B80A" opacity="1.000000" stroke="none" 
	d="
M1294.466553,1485.022095 
	C1293.739258,1483.003906 1293.046997,1480.961304 1293.046143,1478.918457 
	C1292.994507,1359.306519 1293.000000,1239.694702 1292.999390,1119.624756 
	C1309.876709,1114.779907 1326.752808,1110.385254 1343.639160,1106.030884 
	C1344.415894,1105.830566 1345.286499,1105.994263 1346.549072,1106.410400 
	C1346.989136,1219.499634 1346.993652,1332.166748 1346.998291,1444.833984 
	C1329.606934,1458.221802 1312.215576,1471.609619 1294.466553,1485.022095 
z"/>
<path fill="#2CDC16" opacity="1.000000" stroke="none" 
	d="
M866.952271,1109.877686 
	C873.424011,1096.644043 879.496521,1083.195312 886.476379,1070.235352 
	C893.924011,1056.406738 902.127014,1042.978760 910.200134,1029.495728 
	C914.612305,1022.126953 919.438354,1015.005981 924.408569,1008.020630 
	C925.159607,1013.384155 925.942383,1018.500000 925.946594,1023.616516 
	C926.033264,1129.115723 926.031189,1234.615112 926.046753,1340.114380 
	C907.282837,1364.004761 888.518921,1387.895142 869.120361,1411.635010 
	C868.325378,1409.514771 868.025391,1407.544922 868.024963,1405.575073 
	C868.002014,1309.443481 868.012573,1213.311768 867.960815,1117.180176 
	C867.959473,1114.745850 867.303162,1112.311890 866.952271,1109.877686 
z"/>
<path fill="#009F07" opacity="1.000000" stroke="none" 
	d="
M1124.636719,1201.023071 
	C1125.305298,1203.668335 1125.955200,1206.451416 1125.956421,1209.234863 
	C1126.012451,1328.878540 1126.010742,1448.522339 1126.027588,1568.642212 
	C1111.083496,1573.745483 1096.128052,1578.372437 1081.172485,1582.999390 
	C1079.041748,1583.658691 1076.910767,1584.317261 1074.389893,1584.447510 
	C1074.000000,1472.688232 1074.007568,1361.457642 1073.956421,1250.227173 
	C1073.955078,1247.445923 1073.304810,1244.664917 1072.957153,1241.883789 
	C1082.941406,1233.592529 1092.812500,1225.159790 1102.948853,1217.058960 
	C1109.879639,1211.520020 1117.180298,1206.444092 1124.636719,1201.023071 
z"/>
<path fill="#00BE0B" opacity="1.000000" stroke="none" 
	d="
M1347.334351,1444.827148 
	C1346.993652,1332.166748 1346.989136,1219.499634 1346.973267,1106.356079 
	C1354.923218,1104.254639 1362.845703,1102.395630 1370.855835,1101.064697 
	C1380.416870,1099.476196 1390.052002,1098.331055 1399.658813,1097.022095 
	C1400.470581,1096.911499 1401.311401,1097.014038 1402.569336,1097.550049 
	C1403.000000,1193.028198 1402.993042,1287.973755 1403.046387,1382.919434 
	C1403.047485,1384.961182 1403.741211,1387.002808 1404.111816,1389.044434 
	C1392.025391,1401.581177 1380.086792,1414.265259 1367.791870,1426.594238 
	C1361.409790,1432.993896 1354.397827,1438.765259 1347.334351,1444.827148 
z"/>
<path fill="#008405" opacity="1.000000" stroke="none" 
	d="
M426.543457,155.138931 
	C427.258423,156.664993 427.953491,158.374298 427.953979,160.083817 
	C428.003082,340.411957 428.001190,520.740112 427.980316,701.068237 
	C427.980133,702.539185 427.681915,704.010071 427.207153,705.764404 
	C421.262329,688.493286 415.224243,671.056458 410.128784,653.348511 
	C405.762482,638.174377 402.186798,622.753174 398.797638,607.323425 
	C395.812012,593.730835 393.336761,580.013672 391.061737,566.281006 
	C388.775757,552.482300 386.826630,538.620117 385.095001,524.740234 
	C384.039429,516.278809 383.286102,507.741425 383.066711,499.220917 
	C382.229645,466.715729 381.132263,434.202087 381.221283,401.694580 
	C381.266083,385.336823 383.579102,368.979309 385.002014,352.633484 
	C385.867157,342.695282 386.725922,332.743713 388.062897,322.862488 
	C389.892303,309.341400 391.837921,295.818695 394.344757,282.410919 
	C397.581970,265.096741 401.132324,247.828369 405.093842,230.666306 
	C408.354187,216.541733 412.256226,202.557739 416.162781,188.592239 
	C419.282654,177.439133 422.837494,166.407715 426.543457,155.138931 
z"/>
<path fill="#009B07" opacity="1.000000" stroke="none" 
	d="
M1072.642334,1242.016357 
	C1073.304810,1244.664917 1073.955078,1247.445923 1073.956421,1250.227173 
	C1074.007568,1361.457642 1074.000000,1472.688232 1073.999756,1584.376709 
	C1059.210693,1588.223755 1044.426514,1591.633789 1029.627686,1594.979492 
	C1027.417236,1595.479126 1025.138428,1595.676880 1022.407532,1595.644043 
	C1021.616028,1592.657959 1021.040466,1590.042114 1021.038879,1587.426147 
	C1020.978760,1489.244873 1020.971619,1391.063477 1020.957275,1292.882202 
	C1021.830505,1291.562134 1022.514282,1290.054565 1023.606445,1288.951294 
	C1033.679321,1278.776245 1043.711060,1268.556152 1053.988647,1258.590210 
	C1059.878052,1252.879395 1066.200073,1247.614624 1072.642334,1242.016357 
z"/>
<path fill="#009306" opacity="1.000000" stroke="none" 
	d="
M1020.645142,1293.013184 
	C1020.971619,1391.063477 1020.978760,1489.244873 1021.038879,1587.426147 
	C1021.040466,1590.042114 1021.616028,1592.657959 1021.982544,1595.696777 
	C1015.320312,1597.412598 1008.625061,1598.862915 1001.872742,1599.962646 
	C990.882324,1601.752563 979.860596,1603.354614 968.837158,1604.931763 
	C966.890991,1605.210327 964.872070,1604.980957 962.443420,1604.452026 
	C962.000061,1526.638184 962.008545,1449.358276 961.953430,1372.078491 
	C961.951965,1370.036987 961.258545,1367.995972 960.887939,1365.954712 
	C967.476807,1356.918823 973.622192,1347.514526 980.751526,1338.927246 
	C993.635254,1323.408813 1007.106934,1308.378296 1020.645142,1293.013184 
z"/>
<path fill="#3CDE19" opacity="1.000000" stroke="none" 
	d="
M926.362427,1339.979492 
	C926.031189,1234.615112 926.033264,1129.115723 925.946594,1023.616516 
	C925.942383,1018.500000 925.159607,1013.384155 924.669739,1007.699707 
	C938.741272,987.913940 952.875366,968.691345 967.035095,949.487610 
	C968.386658,947.654602 969.898193,945.939514 971.706604,944.449585 
	C972.385132,947.345764 972.960205,949.961975 972.961609,952.578430 
	C973.021423,1065.089600 973.030273,1177.600708 973.045532,1290.111816 
	C957.589722,1306.689453 942.133911,1323.267090 926.362427,1339.979492 
z"/>
<path fill="#C4F634" opacity="1.000000" stroke="none" 
	d="
M1321.345947,1062.782593 
	C1320.994141,940.699524 1320.998901,818.565735 1320.980347,696.431885 
	C1320.980103,694.793884 1320.686401,693.155823 1320.217285,691.229492 
	C1330.097168,686.628967 1340.280396,682.295532 1350.486084,678.015747 
	C1354.394775,676.376587 1358.354980,674.860291 1362.646729,673.223206 
	C1363.336060,677.607483 1363.960327,682.056396 1363.962524,686.505615 
	C1364.021606,805.724976 1364.016724,924.944336 1364.035889,1044.640625 
	C1349.933105,1050.989014 1335.816895,1056.860352 1321.345947,1062.782593 
z"/>
<path fill="#C4F634" opacity="1.000000" stroke="none" 
	d="
M1021.951355,530.875732 
	C1032.201050,523.943542 1042.431885,516.983276 1052.713745,510.098999 
	C1055.259277,508.394653 1057.969482,506.936432 1060.897705,505.189941 
	C1066.490479,510.891693 1072.122314,516.633484 1077.541016,522.987549 
	C1076.885254,527.532959 1076.060547,531.465820 1076.056519,535.399414 
	C1075.979736,609.687195 1075.961060,683.975037 1076.046143,758.262756 
	C1076.057495,768.212097 1076.694824,778.160706 1077.042358,788.109680 
	C1075.441284,789.487976 1073.745605,790.771423 1072.253662,792.259216 
	C1056.389771,808.079468 1040.557983,823.932068 1024.101196,839.630371 
	C1023.324829,837.514893 1023.025330,835.544800 1023.024902,833.574646 
	C1023.002075,735.108948 1023.012451,636.643188 1022.960876,538.177490 
	C1022.959595,535.743408 1022.302551,533.309631 1021.951355,530.875732 
z"/>
<path fill="#59E31F" opacity="1.000000" stroke="none" 
	d="
M1051.646240,859.027588 
	C1052.301514,861.320129 1052.955322,863.754456 1052.956299,866.188965 
	C1053.006470,981.483398 1052.997437,1096.777832 1053.020020,1212.072266 
	C1053.020386,1214.209229 1053.319092,1216.346069 1053.793945,1218.767578 
	C1047.879028,1224.334717 1041.651123,1229.620239 1035.417847,1234.899170 
	C1027.170166,1241.884277 1018.918213,1248.864502 1010.343506,1255.541260 
	C1009.680115,1242.946777 1009.057678,1230.658203 1009.046997,1218.369019 
	C1008.954895,1112.871704 1008.973389,1007.374390 1008.958862,901.877075 
	C1009.477417,900.910400 1009.803162,899.752380 1010.543579,899.005859 
	C1020.581299,888.885681 1030.635986,878.781433 1040.780396,868.768616 
	C1044.163086,865.429810 1047.812744,862.361450 1051.646240,859.027588 
z"/>
<path fill="#7CEA26" opacity="1.000000" stroke="none" 
	d="
M1160.599365,774.948792 
	C1161.302734,777.325317 1161.955200,779.760498 1161.956299,782.195862 
	C1162.011353,902.518311 1162.010498,1022.840759 1162.028076,1143.639648 
	C1153.377930,1149.740845 1144.708008,1155.354126 1136.056030,1160.994873 
	C1131.583984,1163.910400 1127.143555,1166.874512 1122.367065,1169.956299 
	C1121.695312,1167.663452 1121.040039,1165.231079 1121.038940,1162.798584 
	C1120.987793,1042.895508 1120.992798,922.992371 1120.988770,802.632202 
	C1134.072021,793.119263 1147.158325,784.063416 1160.599365,774.948792 
z"/>
<path fill="#1AD812" opacity="1.000000" stroke="none" 
	d="
M866.631226,1110.046021 
	C867.303162,1112.311890 867.959473,1114.745850 867.960815,1117.180176 
	C868.012573,1213.311768 868.002014,1309.443481 868.024963,1405.575073 
	C868.025391,1407.544922 868.325378,1409.514771 868.801636,1411.768311 
	C861.422119,1423.636841 853.479675,1435.066772 846.095886,1446.846802 
	C837.528381,1460.515381 829.451172,1474.491211 820.744263,1488.376465 
	C819.885803,1485.662842 819.060669,1482.906616 819.058289,1480.149658 
	C818.989014,1401.454590 819.010803,1322.759644 818.955688,1244.064575 
	C818.954285,1242.025879 818.258118,1239.987549 817.885986,1237.949097 
	C820.704651,1228.373291 822.906433,1218.562012 826.456726,1209.265625 
	C837.428955,1180.535034 848.881348,1151.987427 860.237244,1123.404419 
	C862.021912,1118.912476 864.274170,1114.606323 866.631226,1110.046021 
z"/>
<path fill="#00C40B" opacity="1.000000" stroke="none" 
	d="
M1404.422363,1388.920166 
	C1403.741211,1387.002808 1403.047485,1384.961182 1403.046387,1382.919434 
	C1402.993042,1287.973755 1403.000000,1193.028198 1402.999512,1097.624512 
	C1419.638184,1096.110962 1436.277954,1095.062500 1452.915283,1093.977417 
	C1453.678101,1093.927734 1454.419556,1093.551514 1455.585449,1093.247314 
	C1455.999878,1167.430542 1455.994141,1241.693848 1456.029785,1315.957031 
	C1456.030884,1318.080200 1456.473755,1320.203003 1456.878296,1322.717529 
	C1449.848633,1333.087769 1443.047241,1343.384277 1435.354736,1352.965454 
	C1425.523438,1365.210693 1414.973389,1376.878906 1404.422363,1388.920166 
z"/>
<path fill="#4AE11C" opacity="1.000000" stroke="none" 
	d="
M1008.652222,902.018921 
	C1008.973389,1007.374390 1008.954895,1112.871704 1009.046997,1218.369019 
	C1009.057678,1230.658203 1009.680115,1242.946777 1010.031433,1255.678223 
	C999.447205,1265.855713 988.844238,1275.583984 978.260681,1285.333374 
	C976.683350,1286.786377 975.197571,1288.338745 973.357483,1289.978516 
	C973.030273,1177.600708 973.021423,1065.089600 972.961609,952.578430 
	C972.960205,949.961975 972.385132,947.345764 972.018616,944.306519 
	C975.703186,939.024902 979.180298,933.929016 983.246582,929.356995 
	C991.443237,920.140747 999.960571,911.209534 1008.652222,902.018921 
z"/>
<path fill="#2CDC16" opacity="1.000000" stroke="none" 
	d="
M746.452148,1295.853760 
	C745.739807,1293.832642 745.044678,1291.624512 745.043823,1289.416260 
	C744.992432,1149.634644 745.005371,1009.852966 744.936523,870.071350 
	C744.935242,867.519653 744.019653,864.968323 743.214539,862.182922 
	C744.260803,858.499878 745.384216,854.932190 747.025879,851.621460 
	C755.379089,834.775085 763.866516,817.995300 772.797852,801.433044 
	C773.525818,803.964172 773.969849,806.254395 773.970459,808.544678 
	C774.003662,940.298279 773.994385,1072.051880 774.043823,1203.805420 
	C774.044739,1206.238770 774.700317,1208.671997 775.050476,1211.105225 
	C767.606628,1232.294800 760.059570,1253.449097 752.778320,1274.694458 
	C750.424561,1281.562256 748.768555,1288.669189 746.452148,1295.853760 
z"/>
<path fill="#3CDE19" opacity="1.000000" stroke="none" 
	d="
M775.383789,1210.929932 
	C774.700317,1208.671997 774.044739,1206.238770 774.043823,1203.805420 
	C773.994385,1072.051880 774.003662,940.298279 773.970459,808.544678 
	C773.969849,806.254395 773.525818,803.964172 773.120728,801.282593 
	C777.658020,792.403870 782.226868,783.837158 787.108215,775.452332 
	C791.675781,767.606506 796.574707,759.953613 801.808716,752.443848 
	C802.526428,754.962158 802.969849,757.252441 802.970398,759.542908 
	C803.003723,885.963806 802.994202,1012.384644 803.043823,1138.805542 
	C803.044800,1141.238892 803.700500,1143.671875 804.050720,1146.105103 
	C800.818604,1153.137817 797.465576,1160.118042 794.379639,1167.214233 
	C788.082703,1181.694580 781.929504,1196.237549 775.383789,1210.929932 
z"/>
<path fill="#008B05" opacity="1.000000" stroke="none" 
	d="
M960.568237,1366.087891 
	C961.258545,1367.995972 961.951965,1370.036987 961.953430,1372.078491 
	C962.008545,1449.358276 962.000061,1526.638184 961.999023,1604.375977 
	C958.041931,1605.554688 954.112976,1606.596191 950.124451,1606.933350 
	C939.981628,1607.790649 929.812073,1608.331055 919.653442,1609.001709 
	C914.739868,1609.326172 909.826904,1609.657837 904.456848,1609.451904 
	C904.000061,1561.699585 904.031494,1514.481567 903.910095,1467.264038 
	C903.903809,1464.826172 902.591492,1462.391846 901.887268,1459.955811 
	C909.503723,1446.558105 916.740906,1432.925903 924.836487,1419.824219 
	C934.148010,1404.754761 944.207947,1390.147095 953.968933,1375.356201 
	C956.003845,1372.272583 958.152344,1369.264038 960.568237,1366.087891 
z"/>
<path fill="#4AE11C" opacity="1.000000" stroke="none" 
	d="
M804.372192,1145.942383 
	C803.700500,1143.671875 803.044800,1141.238892 803.043823,1138.805542 
	C802.994202,1012.384644 803.003723,885.963806 802.970398,759.542908 
	C802.969849,757.252441 802.526428,754.962158 802.122803,752.279663 
	C810.444336,739.618408 818.928467,727.346313 827.427368,715.084290 
	C828.349792,713.753540 829.357544,712.481873 830.807678,711.427490 
	C831.526428,713.963135 831.969727,716.254028 831.970398,718.545105 
	C832.003845,841.002747 831.994629,963.460327 832.046387,1085.917969 
	C832.047241,1087.959839 832.742065,1090.001465 833.113098,1092.043213 
	C823.639954,1109.955444 814.166809,1127.867554 804.372192,1145.942383 
z"/>
<path fill="#59E31F" opacity="1.000000" stroke="none" 
	d="
M833.426636,1091.882690 
	C832.742065,1090.001465 832.047241,1087.959839 832.046387,1085.917969 
	C831.994629,963.460327 832.003845,841.002747 831.970398,718.545105 
	C831.969727,716.254028 831.526428,713.963135 831.122742,711.280029 
	C836.986816,703.078247 842.979980,695.239075 849.064636,687.471558 
	C852.065735,683.640381 855.235901,679.941650 858.809692,676.427734 
	C859.526489,678.963440 859.969727,681.254395 859.970398,683.545410 
	C860.003967,802.002869 859.994446,920.460388 860.046265,1038.917847 
	C860.047180,1040.959961 860.741089,1043.001953 861.111694,1045.043945 
	C855.381714,1054.557861 849.587097,1064.033569 843.945435,1073.599487 
	C840.424255,1079.569946 837.134033,1085.676636 833.426636,1091.882690 
z"/>
<path fill="#68E622" opacity="1.000000" stroke="none" 
	d="
M861.427856,1044.905518 
	C860.741089,1043.001953 860.047180,1040.959961 860.046265,1038.917847 
	C859.994446,920.460388 860.003967,802.002869 859.970398,683.545410 
	C859.969727,681.254395 859.526489,678.963440 859.122681,676.280396 
	C868.086792,665.647827 877.218018,655.407349 886.654663,645.019531 
	C886.974976,758.602966 886.972107,872.333740 887.055359,986.064453 
	C887.059692,992.012024 887.796875,997.959045 888.280273,1004.395203 
	C879.493103,1018.178406 870.618591,1031.472778 861.427856,1044.905518 
z"/>
<path fill="#DBFA39" opacity="1.000000" stroke="none" 
	d="
M1077.346558,787.965088 
	C1076.694824,778.160706 1076.057495,768.212097 1076.046143,758.262756 
	C1075.961060,683.975037 1075.979736,609.687195 1076.056519,535.399414 
	C1076.060547,531.465820 1076.885254,527.532959 1077.580078,523.318115 
	C1095.842529,543.633362 1110.363281,566.489807 1121.722412,591.874023 
	C1121.307373,593.494690 1121.015991,594.466370 1121.015503,595.438232 
	C1120.993042,644.596069 1120.986450,693.753906 1121.041016,742.911682 
	C1121.042603,744.291504 1121.725708,745.670593 1122.090942,747.049927 
	C1115.306763,753.284119 1108.526855,759.522949 1101.737427,765.751343 
	C1093.712891,773.112488 1085.680054,780.464478 1077.346558,787.965088 
z"/>
<path fill="#8DEC29" opacity="1.000000" stroke="none" 
	d="
M943.920898,930.475586 
	C943.121765,928.005371 942.067871,925.319031 942.065796,922.631836 
	C941.981750,812.785339 941.992371,702.938843 941.988342,592.635620 
	C950.419373,585.197998 958.853088,578.216980 967.908447,571.379395 
	C968.685852,573.493896 968.977661,575.465088 968.978088,577.436279 
	C969.000122,682.223572 968.990479,787.010803 969.041504,891.798096 
	C969.042664,894.231506 969.698181,896.664612 970.048523,899.097900 
	C965.582520,904.678528 961.190796,910.320801 956.628418,915.821533 
	C952.569336,920.715515 948.321289,925.452698 943.920898,930.475586 
z"/>
<path fill="#A0F02D" opacity="1.000000" stroke="none" 
	d="
M970.358276,898.958496 
	C969.698181,896.664612 969.042664,894.231506 969.041504,891.798096 
	C968.990479,787.010803 969.000122,682.223572 968.978088,577.436279 
	C968.977661,575.465088 968.685852,573.493896 968.218201,571.234863 
	C976.714905,564.027649 985.523376,557.108276 994.811157,550.428528 
	C995.527771,552.958923 995.971924,555.249695 995.972717,557.540527 
	C996.007080,659.333862 995.995911,761.127197 996.048828,862.920532 
	C996.049866,864.962524 996.744324,867.004089 997.115295,869.045898 
	C988.299500,878.970276 979.483765,888.894653 970.358276,898.958496 
z"/>
<path fill="#B3F331" opacity="1.000000" stroke="none" 
	d="
M997.421692,868.906372 
	C996.744324,867.004089 996.049866,864.962524 996.048828,862.920532 
	C995.995911,761.127197 996.007080,659.333862 995.972717,557.540527 
	C995.971924,555.249695 995.527771,552.958923 995.123047,550.275269 
	C1003.719482,543.588257 1012.483215,537.294128 1021.599121,530.937866 
	C1022.302551,533.309631 1022.959595,535.743408 1022.960876,538.177490 
	C1023.012451,636.643188 1023.002075,735.108948 1023.024902,833.574646 
	C1023.025330,835.544800 1023.324829,837.514893 1023.800842,839.769775 
	C1015.320618,849.625244 1006.524353,859.195984 997.421692,868.906372 
z"/>
<path fill="#08D50F" opacity="1.000000" stroke="none" 
	d="
M817.550110,1238.137939 
	C818.258118,1239.987549 818.954285,1242.025879 818.955688,1244.064575 
	C819.010803,1322.759644 818.989014,1401.454590 819.058289,1480.149658 
	C819.060669,1482.906616 819.885803,1485.662842 820.582886,1488.695923 
	C815.616089,1498.816772 810.082520,1508.511108 805.245544,1518.541260 
	C798.235107,1533.078491 791.727844,1547.858154 785.006531,1562.534790 
	C783.939331,1564.865112 782.874451,1567.196533 781.452148,1570.306641 
	C780.814331,1568.412720 780.112366,1567.209717 780.040344,1565.970215 
	C779.609863,1558.557495 779.225891,1551.139160 779.011658,1543.717407 
	C778.605103,1529.639160 777.904419,1515.551636 778.092896,1501.478271 
	C778.347351,1482.471558 778.912598,1463.448364 780.114197,1444.480957 
	C781.210510,1427.174927 782.736145,1409.850708 785.128845,1392.681763 
	C789.917114,1358.323364 795.012085,1323.992432 803.852844,1290.357544 
	C808.404785,1273.039673 812.766541,1255.671875 817.550110,1238.137939 
z"/>
<path fill="#08D50F" opacity="1.000000" stroke="none" 
	d="
M697.543762,997.145142 
	C698.258606,998.653809 698.957703,1000.360413 698.958252,1002.067322 
	C699.008484,1146.405518 699.006104,1290.743774 698.984680,1435.082031 
	C698.984436,1436.550903 698.682739,1438.019653 698.204712,1439.771606 
	C695.592285,1429.033569 693.112427,1418.046753 691.054077,1406.981567 
	C689.035461,1396.129639 687.383240,1385.207764 685.687866,1374.298096 
	C684.363770,1365.777954 683.148132,1357.239380 682.014221,1348.691650 
	C680.620544,1338.185913 679.311584,1327.668457 678.069458,1317.143677 
	C677.569519,1312.908081 677.254272,1308.645264 677.010620,1304.385864 
	C676.295532,1291.883423 675.456299,1279.383301 675.034241,1266.869873 
	C674.219360,1242.711792 673.255249,1218.547119 673.132324,1194.381226 
	C673.050964,1178.381958 674.048035,1162.358032 675.074707,1146.378052 
	C676.030334,1131.504395 677.157043,1116.607300 679.104675,1101.838867 
	C683.199341,1070.789673 687.232300,1039.708252 694.902039,1009.256042 
	C695.888245,1005.340393 696.445801,1001.316833 697.543762,997.145142 
z"/>
<path fill="#008405" opacity="1.000000" stroke="none" 
	d="
M901.563721,1460.109619 
	C902.591492,1462.391846 903.903809,1464.826172 903.910095,1467.264038 
	C904.031494,1514.481567 904.000061,1561.699585 903.999512,1609.375488 
	C882.137451,1610.564819 860.275879,1611.296143 837.164612,1612.069214 
	C838.428162,1607.942749 839.059265,1605.364990 839.995667,1602.903442 
	C849.702820,1577.383301 859.014771,1551.699829 869.360413,1526.440308 
	C876.129333,1509.913452 884.345947,1493.974854 892.057800,1477.841431 
	C894.906921,1471.880981 898.167297,1466.117065 901.563721,1460.109619 
z"/>
<path fill="#E9FC3C" opacity="1.000000" stroke="none" 
	d="
M1122.399536,746.909058 
	C1121.725708,745.670593 1121.042603,744.291504 1121.041016,742.911682 
	C1120.986450,693.753906 1120.993042,644.596069 1121.015503,595.438232 
	C1121.015991,594.466370 1121.307373,593.494690 1121.776611,592.236023 
	C1126.050049,601.070312 1130.854858,609.928894 1133.788574,619.369019 
	C1139.355225,637.281372 1144.251953,655.430664 1148.614624,673.675720 
	C1150.698608,682.391052 1151.031860,691.539795 1151.949951,700.513550 
	C1152.503174,705.921204 1152.610962,711.373108 1153.005127,716.798828 
	C1153.267334,720.408325 1152.639404,723.002136 1149.218262,725.535278 
	C1140.776123,731.786438 1132.938477,738.853149 1124.835205,745.564697 
	C1124.217529,746.076233 1123.421387,746.372009 1122.399536,746.909058 
z"/>
</svg>